# xmcd CD database file
#
# Track frame offsets:
#	150
#	18027
#	33058
#
# Disc length: 721 seconds
#
# Revision: 1
# Processed by: cddbd v1.5.2PL0 Copyright (c) Steve Scherf et al.
# Submitted via: CDex 1.70beta3
#
DISCID=1002cf03
DTITLE=ムック - ホリゾント
DYEAR=2006
DGENRE=Rock
TTITLE0=ホリゾント
TTITLE1=心色
TTITLE2=娼婦
EXTD=YEAR: 2006
EXTT0=
EXTT1=
EXTT2=
PLAYORDER=
